<svg width="19" height="20" viewBox="0 0 19 20" fill="none" xmlns="http://www.w3.org/2000/svg">
<path d="M9.72521 17.9507C11.3286 17.9507 12.896 17.4752 14.2291 16.5844C15.5623 15.6937 16.6013 14.4275 17.2149 12.9462C17.8285 11.4649 17.9891 9.83488 17.6763 8.26231C17.3635 6.68974 16.5914 5.24524 15.4576 4.11149C14.3238 2.97773 12.8793 2.20563 11.3068 1.89283C9.73421 1.58002 8.1042 1.74056 6.62287 2.35415C5.14154 2.96773 3.87543 4.00681 2.98464 5.33996C2.09386 6.67312 1.6184 8.24049 1.6184 9.84387C1.6184 11.9939 2.47251 14.0559 3.99283 15.5763C5.51315 17.0966 7.57515 17.9507 9.72521 17.9507ZM5.09275 9.26481L12.1283 9.26481L8.89716 6.03772L9.72521 5.2114L14.3577 9.84387L9.72521 14.4763L8.89716 13.6697L12.1283 10.4229L5.09275 10.4229L5.09275 9.26481Z" fill="white"/>
</svg>
