<svg width="32" height="32" viewBox="0 0 32 32" fill="none" xmlns="http://www.w3.org/2000/svg">
<g clip-path="url(#clip0_727_920)">
<path d="M5.78115 17.2769C8.64442 17.3524 8.80267 20.4906 12.1716 22.5954C15.5404 24.7001 19.0594 24.3011 21.8903 23.0608C23.689 22.2614 25.597 20.3702 26.5396 18.1143C24.4733 21.014 22.2237 22.9226 18.6289 23.235C16.8767 23.387 14.9228 23.1294 13.3769 22.2969C15.8153 19.2763 20.0447 19.133 23.5644 17.6837C25.1351 16.9939 27.6569 15.5693 28.5437 14.104C28.754 13.7561 28.8605 13.3592 29.0467 13.0009C30.4566 18.6734 27.5102 24.6944 22.35 27.4566C14.224 31.8066 4.16448 26.8596 2.79718 18.1422C3.58152 17.5664 4.78716 17.273 5.78115 17.2769Z" fill="url(#paint0_linear_727_920)"/>
<path d="M9.87885 19.0519C10.6127 19.9889 11.3811 20.9699 12.5045 21.6135L12.7817 21.7407C13.6887 20.4724 15.7644 19.6999 16.4583 19.4639C14.6262 19.2157 13.1496 17.8819 12.7313 16.1491C12.5658 15.5677 12.5493 14.9536 12.6884 14.3388C13.0755 12.3153 14.8935 10.7837 17.0777 10.7837C19.2074 10.7837 20.9889 12.2398 21.4353 14.1881C21.9156 14.0046 23.6412 13.2754 25.1797 11.7514C26.9878 9.96044 27.3322 9.03331 27.3322 9.03331C27.3322 9.03331 26.311 7.61272 26.1268 7.41294C21.4656 2.36664 13.8156 1.41652 8.17256 5.44033C4.38081 8.14361 2.15711 12.6164 2.70835 17.2206C4.30305 16.5024 4.85517 16.3364 6.17422 16.4243C7.91152 16.5401 8.86215 17.7538 9.87885 19.0519Z" fill="#4E3D28"/>
</g>
<defs>
<linearGradient id="paint0_linear_727_920" x1="29.2201" y1="6.77296" x2="3.38893" y2="14.2306" gradientUnits="userSpaceOnUse">
<stop stop-color="#B5CC34"/>
<stop offset="0.56" stop-color="#569642"/>
<stop offset="0.67" stop-color="#41803D"/>
<stop offset="1" stop-color="#024335"/>
</linearGradient>
<clipPath id="clip0_727_920">
<rect width="32" height="32" fill="white"/>
</clipPath>
</defs>
</svg>
