<svg width="151" height="35" viewBox="0 0 151 35" fill="none" xmlns="http://www.w3.org/2000/svg">
<path d="M4.18806 19.1942C7.98749 19.2944 8.19749 23.4587 12.6678 26.2516C17.1382 29.0445 21.8076 28.515 25.5642 26.8692C27.9509 25.8084 30.4827 23.2989 31.7336 20.3054C28.9916 24.1531 26.0066 26.6858 21.2364 27.1004C18.9113 27.302 16.3187 26.9602 14.2673 25.8555C17.5029 21.8473 23.1151 21.6572 27.7856 19.734C29.8698 18.8187 33.2161 16.9283 34.3929 14.9839C34.672 14.5224 34.8133 13.9956 35.0604 13.5202C36.9313 21.0473 33.0215 29.0369 26.1742 32.7023C15.3913 38.4745 2.04282 31.91 0.228476 20.3424C1.26926 19.5784 2.86909 19.189 4.18806 19.1942Z" fill="url(#paint0_linear_68_186)"/>
<path d="M9.62552 21.5496C10.5994 22.7929 11.6189 24.0946 13.1097 24.9487L13.4775 25.1174C14.6811 23.4345 17.4353 22.4094 18.3561 22.0963C15.9251 21.7669 13.9657 19.997 13.4106 17.6977C13.1909 16.9262 13.169 16.1113 13.3537 15.2955C13.8673 12.6104 16.2797 10.5781 19.1781 10.5781C22.0041 10.5781 24.368 12.5102 24.9605 15.0955C25.5977 14.852 27.8875 13.8845 29.9291 11.8622C32.3283 9.48562 32.7853 8.25536 32.7853 8.25536C32.7853 8.25536 31.4302 6.37031 31.1858 6.10521C25.0007 -0.591005 14.8495 -1.85177 7.36135 3.48764C2.32988 7.07477 -0.620875 13.01 0.110604 19.1195C2.2267 18.1665 2.95933 17.9463 4.70965 18.0629C7.01497 18.2165 8.27642 19.8271 9.62552 21.5496Z" fill="#4E3D28"/>
<path d="M141.289 28.4155C140.277 28.4155 139.375 28.2416 138.584 27.8938C137.792 27.5392 137.165 27.0175 136.704 26.3287C136.25 25.6331 136.022 24.767 136.022 23.7304C136.022 22.8575 136.184 22.1243 136.508 21.531C136.831 20.9377 137.272 20.4603 137.83 20.0989C138.387 19.7374 139.021 19.4646 139.73 19.2805C140.446 19.0964 141.196 18.9668 141.981 18.8918C142.904 18.7963 143.647 18.7077 144.212 18.6258C144.776 18.5372 145.186 18.4076 145.441 18.2371C145.695 18.0666 145.823 17.8143 145.823 17.4801V17.4187C145.823 16.7709 145.616 16.2696 145.203 15.915C144.797 15.5604 144.219 15.3831 143.468 15.3831C142.677 15.3831 142.047 15.557 141.578 15.9048C141.11 16.2457 140.8 16.6754 140.649 17.1937L136.58 16.8663C136.787 15.9116 137.193 15.0864 137.799 14.3908C138.405 13.6884 139.186 13.1496 140.143 12.7745C141.107 12.3926 142.222 12.2017 143.489 12.2017C144.37 12.2017 145.214 12.304 146.019 12.5085C146.831 12.7131 147.551 13.0303 148.177 13.4599C148.811 13.8895 149.31 14.4419 149.675 15.1171C150.04 15.7854 150.222 16.5867 150.222 17.521V28.1189H146.05V25.94H145.926C145.671 26.431 145.331 26.864 144.904 27.2391C144.477 27.6074 143.964 27.8972 143.365 28.1086C142.766 28.3132 142.074 28.4155 141.289 28.4155ZM142.549 25.408C143.196 25.408 143.768 25.2819 144.263 25.0295C144.759 24.7704 145.148 24.4226 145.43 23.9861C145.713 23.5497 145.854 23.0552 145.854 22.5028V20.8354C145.716 20.9241 145.527 21.0059 145.286 21.0809C145.052 21.1491 144.787 21.2139 144.491 21.2753C144.195 21.3298 143.899 21.381 143.603 21.4287C143.306 21.4696 143.038 21.5072 142.797 21.5413C142.281 21.6163 141.83 21.7356 141.444 21.8993C141.059 22.063 140.759 22.2846 140.546 22.5642C140.332 22.837 140.226 23.178 140.226 23.5872C140.226 24.1805 140.442 24.634 140.876 24.9477C141.317 25.2546 141.874 25.408 142.549 25.408Z" fill="#1C6248"/>
<path d="M125.318 28.1188V12.4062H129.583V15.1477H129.748C130.037 14.1725 130.523 13.436 131.204 12.9381C131.886 12.4335 132.671 12.1812 133.559 12.1812C133.779 12.1812 134.017 12.1948 134.271 12.2221C134.526 12.2494 134.75 12.2869 134.943 12.3346V16.2014C134.736 16.14 134.45 16.0854 134.085 16.0377C133.721 15.99 133.387 15.9661 133.084 15.9661C132.437 15.9661 131.858 16.1059 131.349 16.3855C130.846 16.6583 130.447 17.0402 130.151 17.5312C129.862 18.0222 129.717 18.5883 129.717 19.2293V28.1188H125.318Z" fill="#1C6248"/>
<path d="M122.453 12.4056V15.6791H112.9V12.4056H122.453ZM115.069 8.64111H119.468V23.2899C119.468 23.6922 119.53 24.0059 119.654 24.231C119.778 24.4492 119.95 24.6026 120.17 24.6913C120.398 24.78 120.659 24.8243 120.955 24.8243C121.162 24.8243 121.368 24.8072 121.575 24.7731C121.781 24.7322 121.94 24.7015 122.05 24.6811L122.742 27.9238C122.522 27.992 122.212 28.0705 121.812 28.1591C121.413 28.2546 120.928 28.3126 120.356 28.333C119.296 28.3739 118.367 28.2341 117.568 27.9136C116.776 27.5931 116.16 27.0953 115.719 26.4201C115.279 25.7449 115.062 24.8925 115.069 23.8627V8.64111Z" fill="#1C6248"/>
<path d="M106.091 28.1192V12.4066H110.491V28.1192H106.091ZM108.301 10.3811C107.647 10.3811 107.086 10.1663 106.618 9.73665C106.157 9.30019 105.926 8.77848 105.926 8.17152C105.926 7.57139 106.157 7.0565 106.618 6.62686C107.086 6.1904 107.647 5.97217 108.301 5.97217C108.955 5.97217 109.513 6.1904 109.974 6.62686C110.443 7.0565 110.677 7.57139 110.677 8.17152C110.677 8.77848 110.443 9.30019 109.974 9.73665C109.513 10.1663 108.955 10.3811 108.301 10.3811Z" fill="#1C6248"/>
<path d="M79.5674 28.1189V12.4063H83.7602V15.1785H83.9461C84.2766 14.2578 84.8273 13.5315 85.5984 12.9996C86.3695 12.4676 87.2921 12.2017 88.3661 12.2017C89.4539 12.2017 90.3799 12.471 91.1441 13.0098C91.9083 13.5417 92.4178 14.2646 92.6725 15.1785H92.8377C93.1613 14.2783 93.7465 13.5588 94.5934 13.02C95.4471 12.4744 96.4557 12.2017 97.6192 12.2017C99.0994 12.2017 100.301 12.6688 101.223 13.6031C102.153 14.5306 102.618 15.8468 102.618 17.5517V28.1189H98.2285V18.411C98.2285 17.5381 97.9944 16.8834 97.5263 16.4469C97.0581 16.0105 96.4729 15.7922 95.7706 15.7922C94.972 15.7922 94.3489 16.0446 93.9014 16.5492C93.4539 17.0471 93.2302 17.7052 93.2302 18.5235V28.1189H88.9651V18.3189C88.9651 17.5483 88.7413 16.9345 88.2938 16.4776C87.8532 16.0207 87.2714 15.7922 86.5485 15.7922C86.0597 15.7922 85.6191 15.915 85.2266 16.1605C84.8411 16.3992 84.5347 16.7368 84.3075 17.1732C84.0803 17.6029 83.9667 18.1075 83.9667 18.6872V28.1189H79.5674Z" fill="#1C6248"/>
<path d="M71.6415 28.1192V12.4066H76.0409V28.1192H71.6415ZM73.8515 10.3811C73.1974 10.3811 72.6363 10.1663 72.1682 9.73665C71.7069 9.30019 71.4763 8.77848 71.4763 8.17152C71.4763 7.57139 71.7069 7.0565 72.1682 6.62686C72.6363 6.1904 73.1974 5.97217 73.8515 5.97217C74.5055 5.97217 75.0632 6.1904 75.5245 6.62686C75.9927 7.0565 76.2267 7.57139 76.2267 8.17152C76.2267 8.77848 75.9927 9.30019 75.5245 9.73665C75.0632 10.1663 74.5055 10.3811 73.8515 10.3811Z" fill="#1C6248"/>
<path d="M68.1208 7.16895V28.1191H63.7214V7.16895H68.1208Z" fill="#1C6248"/>
<path d="M60.5957 14.5043H56.0724C55.9898 13.9247 55.8211 13.4098 55.5664 12.9597C55.3117 12.5027 54.9846 12.114 54.5853 11.7935C54.186 11.473 53.7247 11.2275 53.2015 11.057C52.6851 10.8865 52.124 10.8012 51.5182 10.8012C50.4235 10.8012 49.4699 11.0706 48.6575 11.6094C47.8451 12.1413 47.2152 12.9187 46.7677 13.9417C46.3202 14.9578 46.0964 16.1922 46.0964 17.6448C46.0964 19.1383 46.3202 20.3931 46.7677 21.4093C47.2221 22.4254 47.8555 23.1926 48.6679 23.7109C49.4803 24.2292 50.42 24.4884 51.4872 24.4884C52.0861 24.4884 52.6404 24.41 53.1498 24.2531C53.6662 24.0962 54.124 23.8678 54.5233 23.5677C54.9227 23.2608 55.2531 22.8892 55.5148 22.4527C55.7833 22.0162 55.9691 21.5184 56.0724 20.9592L60.5957 20.9796C60.4787 21.9412 60.1861 22.8687 59.7179 23.7621C59.2566 24.6486 58.6335 25.4431 57.8487 26.1456C57.0707 26.8412 56.1413 27.3936 55.0604 27.8028C53.9863 28.2051 52.7712 28.4063 51.4149 28.4063C49.5285 28.4063 47.8417 27.9835 46.3546 27.1378C44.8744 26.2922 43.704 25.0681 42.8434 23.4654C41.9897 21.8628 41.5628 19.9226 41.5628 17.6448C41.5628 15.3602 41.9965 13.4166 42.864 11.814C43.7315 10.2113 44.9088 8.99059 46.3959 8.15177C47.883 7.30612 49.556 6.8833 51.4149 6.8833C52.6404 6.8833 53.7764 7.05379 54.8228 7.39478C55.8762 7.73576 56.8091 8.2336 57.6215 8.88829C58.4339 9.53617 59.0948 10.3307 59.6043 11.2718C60.1207 12.2129 60.4511 13.2904 60.5957 14.5043Z" fill="#1C6248"/>
<defs>
<linearGradient id="paint0_linear_68_186" x1="35.2904" y1="5.25599" x2="1.0137" y2="15.1519" gradientUnits="userSpaceOnUse">
<stop stop-color="#B5CC34"/>
<stop offset="0.56" stop-color="#569642"/>
<stop offset="0.67" stop-color="#41803D"/>
<stop offset="1" stop-color="#024335"/>
</linearGradient>
</defs>
</svg>
