<svg width="30" height="29" viewBox="0 0 30 29" fill="none" xmlns="http://www.w3.org/2000/svg">
<path d="M27.4487 16.5768V25.4931H22.1012V17.1737C22.1012 15.0833 21.3275 13.6575 19.3925 13.6575C17.915 13.6575 17.035 14.6193 16.6488 15.5485C16.5075 15.8808 16.4713 16.3436 16.4713 16.8088V25.4931H11.1213C11.1213 25.4931 11.1937 11.4039 11.1213 9.94305H16.4713V12.147L16.4363 12.1978H16.4713V12.147C17.1812 11.0898 18.45 9.57813 21.2913 9.57813C24.81 9.57813 27.4487 11.8015 27.4487 16.5768ZM5.52625 2.44775C3.6975 2.44775 2.5 3.60775 2.5 5.13388C2.5 6.62617 3.6625 7.82121 5.45625 7.82121H5.49125C7.3575 7.82121 8.51625 6.62617 8.51625 5.13388C8.48375 3.60775 7.35875 2.44775 5.5275 2.44775H5.52625ZM2.8175 25.4931H8.165V9.94305H2.8175V25.4931Z" fill="#1C6248"/>
</svg>
